<svg width="614" height="97" viewBox="0 0 614 97" fill="none" xmlns="http://www.w3.org/2000/svg">
<path d="M601.08 23.99C604.95 26.11 607.91 29.04 609.97 32.8C612.03 36.56 613.06 40.91 613.06 45.87C613.06 52.55 611.32 58.62 607.84 64.07C604.36 69.53 599.75 73.81 594.02 76.93C588.29 80.05 582.16 81.61 575.65 81.61C570.7 81.61 566.22 80.69 562.21 78.85C558.2 77.01 554.95 74.26 552.44 70.58L564.8 61.06C567.75 65.62 571.92 67.91 577.32 67.91C581.05 67.91 584.39 66.94 587.34 64.99C590.29 63.04 592.54 60.4 594.1 57.06H572.56L574.98 44.87H595.85C595.4 41.59 594.15 39.04 592.09 37.23C590.03 35.42 587.33 34.52 583.99 34.52C578.53 34.52 573.44 36.8 568.71 41.37L560.11 31.85C563.56 28.34 567.64 25.63 572.34 23.71C577.04 21.79 582.04 20.83 587.33 20.83C592.64 20.81 597.21 21.87 601.08 23.99Z" fill="#F53F8A"/>
<path d="M555.3 21.98H512.56L500.87 80.43H517.16L525.92 35.09H544.55L555.3 21.98Z" fill="#F53F8A"/>
<path d="M463.87 44.61H488.11L485.68 56.97H461.37L459.28 67.65H476.76L487.23 80.43H440.41L449.14 36.76L452.1 21.98H497.84L487.37 34.76H465.79L463.87 44.61Z" fill="#F53F8A"/>
<path d="M172.73 35.09H154.53L145.68 80.43H129.4L138.25 35.09H120.63L123.22 21.98H175.32L172.73 35.09Z" fill="#343434"/>
<path d="M292.19 26.91C296.31 30.19 298.37 34.81 298.37 40.77C298.37 45.67 297.19 49.95 294.82 53.63C292.45 57.3 289.09 60.14 284.72 62.15C280.35 64.15 275.27 65.16 269.48 65.16H257.79L254.78 80.44H238.25L249.94 22H274.65C282.22 21.98 288.07 23.63 292.19 26.91ZM278.7 49.53C280.68 47.81 281.66 45.36 281.66 42.18C281.66 39.79 280.87 37.99 279.28 36.79C277.69 35.59 275.42 35 272.48 35H263.8L260.38 52.12H270.23C273.9 52.12 276.73 51.26 278.7 49.53Z" fill="#343434"/>
<path d="M379.91 78.34C375.54 76.17 372.17 73.14 369.81 69.24C367.44 65.34 366.26 60.89 366.26 55.88C366.26 49.2 367.8 43.19 370.89 37.85C373.98 32.51 378.29 28.33 383.83 25.33C389.37 22.32 395.67 20.82 402.74 20.82C408.64 20.82 413.77 21.91 418.14 24.08C422.51 26.25 425.88 29.29 428.24 33.18C430.61 37.08 431.79 41.53 431.79 46.54C431.79 53.22 430.24 59.23 427.16 64.57C424.07 69.91 419.76 74.09 414.22 77.09C408.68 80.1 402.38 81.6 395.31 81.6C389.41 81.6 384.28 80.51 379.91 78.34ZM406.42 65.15C409.2 63.31 411.35 60.85 412.85 57.76C414.35 54.67 415.1 51.26 415.1 47.53C415.1 43.58 413.89 40.42 411.47 38.05C409.05 35.68 405.67 34.5 401.33 34.5C397.66 34.5 394.43 35.42 391.65 37.26C388.87 39.1 386.72 41.56 385.22 44.65C383.72 47.74 382.97 51.15 382.97 54.88C382.97 58.83 384.18 61.99 386.6 64.36C389.02 66.73 392.4 67.91 396.74 67.91C400.4 67.9 403.63 66.98 406.42 65.15Z" fill="#343434"/>
<path d="M352.53 48.24C349.27 45.54 344.64 44.19 338.63 44.19H323.43L325.35 34.76H350.02L351.67 32.75L360.49 21.99H311.66L299.97 80.43H329.11C334.9 80.43 339.92 79.6 344.18 77.93C348.44 76.26 351.71 73.88 353.99 70.79C356.27 67.7 357.41 64.07 357.41 59.89C357.41 54.82 355.78 50.94 352.53 48.24ZM337.75 66.61C335.94 67.92 333.5 68.57 330.44 68.57H318.58L321.08 55.96H332.94C335.5 55.96 337.39 56.39 338.62 57.25C339.84 58.11 340.46 59.44 340.46 61.22C340.46 63.51 339.56 65.3 337.75 66.61Z" fill="#343434"/>
<path d="M195.68 80.43H178.76L224.51 21.98H241.43L195.68 80.43Z" fill="#343434"/>
<path d="M195.69 66.57L208.47 59.66L201.25 21.99H183.72L195.69 66.57Z" fill="#343434"/>
<path d="M42.9711 26.8053L37.5889 21.4314L3.14502 50.4697L12.8611 55.2393L42.9711 26.8053Z" fill="#343434"/>
<path d="M41.6958 83.9538L46.6025 93.8598L75.6858 59.4693L70.1307 53.9228L41.6958 83.9538Z" fill="#343434"/>
<path d="M70.2063 50.815C76.6585 44.1247 82.6027 37.6178 85.6504 33.3985C90.6003 26.5355 100.262 5.51488 95.896 1.15536C95.8852 1.14457 95.8744 1.13378 95.8636 1.13378C95.8528 1.12299 95.842 1.1122 95.842 1.10141C91.4757 -3.25811 70.4225 6.39973 63.5488 11.3312C59.2366 14.4066 52.5791 20.4926 45.7595 27.0535L15.9953 56.7824L32.1635 64.7245L40.1395 80.8352L70.2063 50.815Z" fill="#343434"/>
<path d="M17.2598 65.7712L26.8245 70.1415L31.2881 79.767L24.7495 86.2954L0 97L10.7212 72.2997L17.2598 65.7712Z" fill="#F53F8A"/>
</svg>
